{
  "accessors": [
    {
      "bufferView": 2,
      "componentType": 5126,
      "count": 7044,
      "max": [
        4.25,
        7.184340476989746,
        4.25
      ],
      "min": [
        -4.25,
        2.148737907409668,
        -4.25
      ],
      "type": "VEC3"
    },
    {
      "bufferView": 2,
      "byteOffset": 84528,
      "componentType": 5126,
      "count": 7044,
      "max": [
        1.0,
        0.9999933838844299,
        1.0
      ],
      "min": [
        -1.0,
        -0.9999780654907227,
        -1.0
      ],
      "type": "VEC3"
    },
    {
      "bufferView": 1,
      "componentType": 5126,
      "count": 7044,
      "max": [
        0.9835719466209412,
        1.0
      ],
      "min": [
        0.058947622776031494,
        -7.99434195481141e-17
      ],
      "type": "VEC2"
    },
    {
      "bufferView": 0,
      "componentType": 5125,
      "count": 40080,
      "type": "SCALAR"
    },
    {
      "bufferView": 2,
      "byteOffset": 169056,
      "componentType": 5126,
      "count": 2448,
      "max": [
        3.8656764030456543,
        8.29963207244873,
        3.8656764030456543
      ],
      "min": [
        -3.8656764030456543,
        1.7003669738769531,
        -3.8656764030456543
      ],
      "type": "VEC3"
    },
    {
      "bufferView": 2,
      "byteOffset": 198432,
      "componentType": 5126,
      "count": 2448,
      "max": [
        1.0,
        0.9980267882347107,
        1.0
      ],
      "min": [
        -1.0,
        -0.9980268478393555,
        -1.0
      ],
      "type": "VEC3"
    },
    {
      "bufferView": 1,
      "byteOffset": 56352,
      "componentType": 5126,
      "count": 2448,
      "max": [
        0.65625,
        0.9996917247772217
      ],
      "min": [
        0.3437499403953552,
        0.0003082007169723511
      ],
      "type": "VEC2"
    },
    {
      "bufferView": 0,
      "byteOffset": 160320,
      "componentType": 5125,
      "count": 7200,
      "type": "SCALAR"
    },
    {
      "bufferView": 2,
      "byteOffset": 227808,
      "componentType": 5126,
      "count": 838,
      "max": [
        3.8656764030456543,
        8.828241348266602,
        3.8656764030456543
      ],
      "min": [
        -3.8656764030456543,
        1.0968875885009766,
        -3.8656764030456543
      ],
      "type": "VEC3"
    },
    {
      "bufferView": 2,
      "byteOffset": 237864,
      "componentType": 5126,
      "count": 838,
      "max": [
        1.0,
        0.9974218606948853,
        1.0
      ],
      "min": [
        -1.0,
        -0.9974218606948853,
        -1.0
      ],
      "type": "VEC3"
    },
    {
      "bufferView": 1,
      "byteOffset": 75936,
      "componentType": 5126,
      "count": 838,
      "max": [
        0.8625012636184692,
        0.9875012636184692
      ],
      "min": [
        0.13749875128269196,
        0.0
      ],
      "type": "VEC2"
    },
    {
      "bufferView": 0,
      "byteOffset": 189120,
      "componentType": 5125,
      "count": 2628,
      "type": "SCALAR"
    }
  ],
  "asset": {
    "extras": {
      "author": "Mr A McBride (https://sketchfab.com/lobsterfuric)",
      "license": "CC-BY-4.0 (http://creativecommons.org/licenses/by/4.0/)",
      "source": "https://sketchfab.com/3d-models/question-mark-box-2dbdbbab6f24456986a208ba2f479f87",
      "title": "Question Mark Box"
    },
    "generator": "Sketchfab-15.27.0",
    "version": "2.0"
  },
  "bufferViews": [
    {
      "buffer": 0,
      "byteLength": 199632,
      "name": "floatBufferViews",
      "target": 34963
    },
    {
      "buffer": 0,
      "byteLength": 82640,
      "byteOffset": 199632,
      "byteStride": 8,
      "name": "floatBufferViews",
      "target": 34962
    },
    {
      "buffer": 0,
      "byteLength": 247920,
      "byteOffset": 282272,
      "byteStride": 12,
      "name": "floatBufferViews",
      "target": 34962
    }
  ],
  "buffers": [
    {
      "byteLength": 530192,
      "uri": "scene.bin"
    }
  ],
  "extensionsUsed": [
    "KHR_materials_emissive_strength",
    "KHR_materials_specular"
  ],
  "materials": [
    {
      "doubleSided": true,
      "emissiveFactor": [
        1.0,
        1.0,
        1.0
      ],
      "extensions": {
        "KHR_materials_emissive_strength": {
          "emissiveStrength": 10.0
        },
        "KHR_materials_specular": {
          "specularColorFactor": [
            1.0,
            1.0,
            1.0
          ],
          "specularFactor": 1.0
        }
      },
      "name": "phong2",
      "pbrMetallicRoughness": {
        "roughnessFactor": 0.0
      }
    },
    {
      "doubleSided": true,
      "extensions": {
        "KHR_materials_specular": {
          "specularColorFactor": [
            1.0,
            1.0,
            1.0
          ],
          "specularFactor": 1.0
        }
      },
      "name": "nails",
      "pbrMetallicRoughness": {
        "baseColorFactor": [
          0.5,
          0.346158,
          0.0,
          1.0
        ],
        "roughnessFactor": 0.09999999999999998
      }
    },
    {
      "doubleSided": true,
      "extensions": {
        "KHR_materials_specular": {
          "specularColorFactor": [
            1.0,
            1.0,
            1.0
          ],
          "specularFactor": 1.0
        }
      },
      "name": "cube",
      "pbrMetallicRoughness": {
        "baseColorFactor": [
          1.0,
          0.36366537358421697,
          0.0,
          1.0
        ],
        "roughnessFactor": 0.09999999999999998
      }
    }
  ],
  "meshes": [
    {
      "name": "polySurface12_phong2_0",
      "primitives": [
        {
          "attributes": {
            "NORMAL": 1,
            "POSITION": 0,
            "TEXCOORD_0": 2
          },
          "indices": 3,
          "material": 0,
          "mode": 4
        }
      ]
    },
    {
      "name": "polySurface12_nails_0",
      "primitives": [
        {
          "attributes": {
            "NORMAL": 5,
            "POSITION": 4,
            "TEXCOORD_0": 6
          },
          "indices": 7,
          "material": 1,
          "mode": 4
        }
      ]
    },
    {
      "name": "polySurface12_cube_0",
      "primitives": [
        {
          "attributes": {
            "NORMAL": 9,
            "POSITION": 8,
            "TEXCOORD_0": 10
          },
          "indices": 11,
          "material": 2,
          "mode": 4
        }
      ]
    }
  ],
  "nodes": [
    {
      "children": [
        1
      ],
      "matrix": [
        1.0,
        0.0,
        0.0,
        0.0,
        0.0,
        2.220446049250313e-16,
        -1.0,
        0.0,
        0.0,
        1.0,
        2.220446049250313e-16,
        0.0,
        0.0,
        0.0,
        0.0,
        1.0
      ],
      "name": "Sketchfab_model"
    },
    {
      "children": [
        2
      ],
      "matrix": [
        0.009999999776482582,
        0.0,
        0.0,
        0.0,
        0.0,
        0.0,
        0.009999999776482582,
        0.0,
        0.0,
        -0.009999999776482582,
        0.0,
        0.0,
        0.0,
        0.0,
        0.0,
        1.0
      ],
      "name": "969fe7c578324a95bb70fda8eacc149f.fbx"
    },
    {
      "children": [
        3
      ],
      "name": "RootNode"
    },
    {
      "children": [
        4,
        5,
        6
      ],
      "matrix": [
        1.0,
        0.0,
        0.0,
        0.0,
        0.0,
        1.0,
        0.0,
        0.0,
        0.0,
        0.0,
        1.0,
        0.0,
        0.0,
        -0.762564480304718,
        0.0,
        1.0
      ],
      "name": "polySurface12"
    },
    {
      "mesh": 0,
      "name": "polySurface12_phong2_0"
    },
    {
      "mesh": 1,
      "name": "polySurface12_nails_0"
    },
    {
      "mesh": 2,
      "name": "polySurface12_cube_0"
    }
  ],
  "scene": 0,
  "scenes": [
    {
      "name": "Sketchfab_Scene",
      "nodes": [
        0
      ]
    }
  ]
}
